<svg width="48" height="32" viewBox="0 0 48 32" fill="none" xmlns="http://www.w3.org/2000/svg">
<path d="M45.3844 1.84996C44.8688 1.55644 44.2856 1.40209 43.6924 1.40209C43.0991 1.40209 42.5159 1.55644 42.0004 1.84996L34.8004 6.04996V5.13796C34.8004 3.78537 34.2631 2.48815 33.3067 1.53172C32.3501 0.575294 31.0529 0.0379639 29.7004 0.0379639H6.00039C4.64778 0.0379639 3.35058 0.575294 2.39414 1.53172C1.43771 2.48815 0.900391 3.78537 0.900391 5.13796V26.3899C0.900391 27.0597 1.03231 27.723 1.2886 28.3417C1.5449 28.9605 1.92057 29.5227 2.39414 29.9962C2.86772 30.4698 3.42995 30.8455 4.0487 31.1017C4.66746 31.3581 5.33064 31.4899 6.00039 31.4899H29.6764C30.3481 31.4932 31.0139 31.3636 31.6354 31.1086C32.257 30.8538 32.822 30.4786 33.2981 30.0048C33.7742 29.5309 34.1521 28.9675 34.4099 28.3473C34.6676 27.7269 34.8004 27.0618 34.8004 26.3899V25.4779L42.0004 29.6299C42.5221 29.931 43.1141 30.0883 43.7164 30.0859C44.315 30.0897 44.9036 29.9322 45.4204 29.6299C45.9442 29.3332 46.3793 28.9021 46.681 28.3812C46.9826 27.8601 47.1398 27.268 47.1364 26.6659V4.86196C47.1449 4.24822 46.9865 3.64371 46.6778 3.11314C46.3693 2.58256 45.9221 2.14593 45.3844 1.84996ZM31.7764 7.7299V26.3899C31.7764 26.9469 31.5551 27.481 31.1612 27.8749C30.7675 28.2687 30.2333 28.4899 29.6764 28.4899H6.00039C5.44343 28.4899 4.90929 28.2687 4.51547 27.8749C4.12164 27.481 3.90039 26.9469 3.90039 26.3899V5.13796C3.90356 4.5831 4.1262 4.05204 4.5197 3.66079C4.91318 3.26956 5.44551 3.04996 6.00039 3.04996H29.6764C30.2333 3.04996 30.7675 3.27121 31.1612 3.66504C31.5551 4.05886 31.7764 4.59301 31.7764 5.14996V7.7299ZM44.1004 26.6659C44.1017 26.7402 44.0822 26.8134 44.044 26.877C44.0059 26.9406 43.9505 26.9923 43.8844 27.0259C43.8226 27.0682 43.7494 27.0909 43.6744 27.0909C43.5994 27.0909 43.5262 27.0682 43.4644 27.0259L34.8004 22.0099V9.5179L43.4884 4.50196C43.5502 4.45966 43.6234 4.43703 43.6984 4.43703C43.7734 4.43703 43.8466 4.45966 43.9084 4.50196C43.9745 4.5357 44.0299 4.58734 44.068 4.65099C44.1062 4.71465 44.1257 4.78774 44.1244 4.86196L44.1004 26.6659Z" fill="#1D1C1D"/>
<path d="M25.608 15.302C25.2419 15.1745 24.8403 15.1963 24.4901 15.3624C24.1397 15.5286 23.8689 15.8259 23.736 16.1901C23.2955 17.3883 22.4994 18.4231 21.4544 19.1563C20.4095 19.8895 19.1654 20.2858 17.8889 20.2924C16.6124 20.2989 15.3642 19.9153 14.3118 19.1928C13.2594 18.4704 12.4528 17.4436 12 16.25C11.8473 15.9131 11.5737 15.6458 11.2333 15.5011C10.8928 15.3563 10.5105 15.3448 10.1619 15.4685C9.81334 15.5923 9.52392 15.8424 9.35097 16.1694C9.17802 16.4964 9.13414 16.8763 9.22801 17.234C9.86803 19.0192 11.0439 20.5632 12.5947 21.6546C14.1455 22.7461 15.9956 23.3319 17.892 23.3319C19.7885 23.3319 21.6386 22.7461 23.1894 21.6546C24.7401 20.5632 25.916 19.0192 26.556 17.234C26.6291 17.0455 26.6622 16.8439 26.6534 16.642C26.6447 16.44 26.5941 16.2419 26.5052 16.0604C26.4161 15.8789 26.2904 15.7179 26.136 15.5874C25.9815 15.4569 25.8018 15.3596 25.608 15.302Z" fill="#1D1C1D"/>
<path d="M14.8442 14.438C15.1926 14.4403 15.5338 14.3395 15.8248 14.1481C16.116 13.9568 16.344 13.6835 16.48 13.3628C16.6161 13.0421 16.654 12.6883 16.5892 12.346C16.5244 12.0037 16.3597 11.6882 16.116 11.4394C15.8721 11.1905 15.5601 11.0195 15.2193 10.9478C14.8783 10.8761 14.5238 10.9069 14.2004 11.0363C13.877 11.1658 13.5991 11.3882 13.4019 11.6753C13.2047 11.9626 13.0969 12.3016 13.0922 12.65C13.0874 12.8831 13.1292 13.1147 13.215 13.3315C13.301 13.5482 13.4292 13.7456 13.5924 13.9121C13.7556 14.0786 13.9503 14.2109 14.1653 14.3012C14.3802 14.3915 14.611 14.438 14.8442 14.438Z" fill="#1D1C1D"/>
<path d="M20.5561 14.438C20.9044 14.4403 21.2456 14.3395 21.5368 14.1481C21.8279 13.9568 22.0558 13.6835 22.1918 13.3628C22.3279 13.0421 22.366 12.6883 22.3012 12.346C22.2364 12.0037 22.0717 11.6882 21.8279 11.4394C21.584 11.1905 21.272 11.0195 20.9311 10.9478C20.5903 10.8761 20.2357 10.9069 19.9123 11.0363C19.5889 11.1658 19.3111 11.3882 19.1138 11.6753C18.9166 11.9626 18.8089 12.3016 18.8041 12.65C18.7993 12.8831 18.841 13.1147 18.9269 13.3315C19.0129 13.5482 19.1411 13.7456 19.3043 13.9121C19.4675 14.0786 19.6622 14.2109 19.8772 14.3012C20.0921 14.3915 20.323 14.438 20.5561 14.438Z" fill="#1D1C1D"/>
</svg>
